<svg width="84" height="72" viewBox="0 0 84 72" fill="none" xmlns="http://www.w3.org/2000/svg">
<path d="M5.62504 58.1556C24.6049 63.392 29.1833 58.3572 43.4152 53.6307C47.8688 52.1926 52.4622 51.3327 56.8414 52.9814C41.1379 52.5722 28.0357 71.8961 5.62207 58.1526L5.62504 58.1556Z" fill="#00BBDA"/>
<path d="M36.8687 61.9004C40.3471 58.5231 46.3259 55.5372 52.4087 54.8196C57.0882 54.3126 59.6867 54.8256 63.7686 55.8397C72.9969 57.8619 74.6915 55.7596 78.9251 53.1621C68.1301 67.0005 61.4556 50.8611 36.8687 61.9004Z" fill="#00BBDA"/>
<path d="M36.182 53.6963C27.8932 60.8512 9.82905 60.8631 5.00977 51.2886C13.3164 57.3672 26.1926 56.1099 36.182 53.6963Z" fill="#00BBDA"/>
<path d="M25.3363 33.1562C25.3363 33.0139 25.3512 32.7737 25.3512 32.5217C25.3512 30.5706 24.0936 28.8301 21.7984 28.8301C19.6311 28.8301 17.9424 30.5884 17.9424 32.9813C17.9424 35.3742 19.6489 37.1325 22.0838 37.1325C23.1749 37.1325 24.1293 36.8775 24.7982 36.5484C24.9617 36.4654 25.0658 36.2993 25.0658 36.1184V36.0829C25.0658 35.7448 24.7179 35.5076 24.4057 35.641C23.7338 35.9227 22.9192 36.0858 22.1344 36.0858C20.3654 36.0858 19.2029 34.9442 19.1702 33.2185V33.1562H25.3363ZM21.7835 29.8442C23.3592 29.8442 24.1887 31.0302 24.1709 32.2993H19.2029C19.3457 31.0302 20.2703 29.8442 21.7835 29.8442Z" fill="#234075"/>
<path d="M67.8532 29.0198H67.77C67.4905 29.0198 67.2616 29.2422 67.2557 29.521L67.2497 29.9539C67.2349 30.3038 67.2973 30.5558 67.2973 30.5558H67.2646C66.8365 29.6692 65.671 28.8301 64.351 28.8301C62.2461 28.8301 60.6704 30.541 60.6704 32.9813C60.6704 35.4216 62.2461 37.1325 64.3659 37.1325C65.6889 37.1325 66.8365 36.2608 67.2646 35.3416H67.2973C67.2973 35.3416 67.2497 35.5788 67.2497 35.9435L67.2586 36.4387C67.2616 36.7174 67.4905 36.9428 67.77 36.9428H67.8503C68.1357 36.9428 68.3646 36.7144 68.3646 36.4327V29.5299C68.3646 29.2482 68.1357 29.0198 67.8532 29.0198ZM64.4937 36.0858C62.8853 36.0858 61.818 34.7545 61.818 32.9813C61.818 31.2081 62.8853 29.8738 64.4937 29.8738C65.7662 29.8738 67.1843 30.8108 67.1843 32.9813C67.1843 35.1518 65.7662 36.0858 64.4937 36.0858Z" fill="#234075"/>
<path d="M57.8104 29.2244C57.4091 28.9665 56.8769 28.8301 56.1961 28.8301C54.546 28.8301 53.4995 29.9183 53.113 30.6625V29.601C53.113 29.3431 52.9138 29.0554 52.6641 28.9932C52.453 28.9428 52.2598 29.005 52.123 29.1296C52.1201 29.1296 52.1141 29.1325 52.1111 29.1355C52.1082 29.1385 52.1022 29.1444 52.0992 29.1474C51.9982 29.2333 51.9298 29.3608 51.9268 29.5061C51.9238 29.5121 51.9238 29.521 51.9238 29.5269V36.3527C51.9238 36.3527 51.9268 36.3675 51.9268 36.3764C51.9268 36.4179 51.9357 36.4594 51.9446 36.5009C51.9446 36.5128 51.9446 36.5247 51.9506 36.5336C51.9565 36.5484 51.9625 36.5632 51.9714 36.578C51.9714 36.581 51.9744 36.5869 51.9773 36.5899C51.9833 36.6047 51.9892 36.6225 51.9982 36.6373C52.0071 36.6522 52.016 36.664 52.0249 36.6759C52.0279 36.6818 52.0309 36.6877 52.0368 36.6907C52.0457 36.7026 52.0517 36.7144 52.0606 36.7263H52.0636C52.0755 36.7441 52.0873 36.7589 52.1022 36.7708C52.129 36.7975 52.1587 36.8212 52.1914 36.8449C52.2122 36.8568 52.233 36.8657 52.2538 36.8775C52.3936 36.9487 52.563 36.9724 52.7444 36.8983C52.9793 36.8034 53.116 36.5602 53.116 36.3112V32.7975C53.232 31.1488 54.4331 29.9153 56.0385 29.9153C57.082 29.9153 57.4923 30.4461 57.6439 31.1755C57.6885 31.386 57.7004 31.6025 57.7004 31.819V36.326C57.7004 36.5869 57.855 36.833 58.1048 36.9131C58.2623 36.9635 58.405 36.9487 58.5269 36.8953C58.5329 36.8923 58.5418 36.8894 58.5477 36.8864C58.5626 36.8805 58.5745 36.8746 58.5864 36.8657C58.6042 36.8568 58.625 36.8449 58.6429 36.8301C58.6696 36.8123 58.6934 36.7915 58.7172 36.7708L58.7707 36.7085C58.7886 36.6848 58.8064 36.6611 58.8183 36.6344C58.8361 36.6018 58.851 36.5662 58.8629 36.5306C58.8807 36.4743 58.8896 36.412 58.8896 36.3497V31.9435C58.8896 30.6685 58.5923 29.7196 57.8134 29.2185L57.8104 29.2244Z" fill="#234075"/>
<path d="M26.7929 17.7349C26.7929 17.5925 26.8077 17.3524 26.8077 17.1003C26.8077 15.1492 25.5501 13.4087 23.2549 13.4087C21.0876 13.4087 19.3989 15.167 19.3989 17.5599C19.3989 19.9528 21.1054 21.7111 23.5404 21.7111C24.6315 21.7111 25.5858 21.4561 26.2547 21.127C26.4182 21.044 26.5223 20.8779 26.5223 20.6971V20.6615C26.5223 20.3234 26.1745 20.0862 25.8623 20.2197C25.1904 20.5014 24.3758 20.6644 23.5909 20.6644C21.8219 20.6644 20.6595 19.5228 20.6268 17.7971V17.7349H26.7929ZM23.2401 14.4228C24.8158 14.4228 25.6453 15.6088 25.6274 16.8779H20.6595C20.8022 15.6088 21.7268 14.4228 23.2401 14.4228Z" fill="#234075"/>
<path d="M44.4052 17.7349C44.4052 17.5925 44.42 17.3524 44.42 17.1003C44.42 15.1492 43.1624 13.4087 40.8673 13.4087C38.6999 13.4087 37.0112 15.167 37.0112 17.5599C37.0112 19.9528 38.7178 21.7111 41.1527 21.7111C42.2438 21.7111 43.1981 21.4561 43.867 21.127C44.0306 21.044 44.1346 20.8779 44.1346 20.6971V20.6615C44.1346 20.3234 43.7868 20.0862 43.4746 20.2197C42.8027 20.5014 41.9881 20.6644 41.2032 20.6644C39.4342 20.6644 38.2718 19.5228 38.2391 17.7971V17.7349H44.4052ZM40.8524 14.4228C42.4281 14.4228 43.2576 15.6088 43.2397 16.8779H38.2718C38.4145 15.6088 39.3391 14.4228 40.8524 14.4228Z" fill="#234075"/>
<path d="M73.8768 17.7349C73.8768 17.5925 73.8917 17.3524 73.8917 17.1003C73.8917 15.1492 72.6341 13.4087 70.3389 13.4087C68.1716 13.4087 66.4829 15.167 66.4829 17.5599C66.4829 19.9528 68.1894 21.7111 70.6243 21.7111C71.7154 21.7111 72.6698 21.4561 73.3387 21.127C73.5022 21.044 73.6063 20.8779 73.6063 20.6971V20.6615C73.6063 20.3234 73.2584 20.0862 72.9463 20.2197C72.2744 20.5014 71.4598 20.6644 70.6749 20.6644C68.9059 20.6644 67.7435 19.5228 67.7108 17.7971V17.7349H73.8768ZM70.3241 14.4228C71.8998 14.4228 72.7293 15.6088 72.7114 16.8779H67.7435C67.8862 15.6088 68.8108 14.4228 70.3241 14.4228Z" fill="#234075"/>
<path d="M16.3666 15.7003C17.2259 15.2882 17.8026 14.4134 17.8026 13.346C17.8026 11.4868 16.3964 10.2622 14.1904 10.2622H10.6317C10.3046 10.2622 10.04 10.5261 10.04 10.8523V21.1236C10.04 21.4468 10.3046 21.7107 10.6317 21.7107H14.6393C16.765 21.7107 18.2843 20.4713 18.2843 18.5291C18.2843 17.1473 17.4042 16.0828 16.3666 15.7003ZM11.2233 11.2644H14.2231C15.6769 11.2644 16.5569 12.0917 16.5569 13.4112C16.5569 14.4609 15.9653 15.1429 15.2309 15.3356H11.2233V11.2644ZM14.6066 20.7085H11.2233V16.2874H14.9574C16.1407 16.2874 17.0356 17.1621 17.0356 18.4668C17.0356 19.7715 16.0307 20.7085 14.6066 20.7085Z" fill="#234075"/>
<path d="M51.7575 13.5718C51.5256 13.5718 51.3145 13.7111 51.2223 13.9246C50.3899 15.8638 49.5366 17.8505 48.7844 19.6948C48.0144 17.8505 47.1612 15.8638 46.3287 13.9217C46.2365 13.7111 46.0314 13.5747 45.7995 13.5747C45.3833 13.5747 45.1068 14.0017 45.2733 14.3783L48.4277 21.4888C48.4871 21.6252 48.6239 21.7141 48.7755 21.7141C48.9271 21.7141 49.0609 21.6252 49.1234 21.4888L52.2896 14.3902C52.4591 14.0077 52.1796 13.5747 51.7575 13.5747V13.5718Z" fill="#234075"/>
<path d="M65.0114 20.6584C64.9668 20.6584 64.9223 20.6613 64.8777 20.6613C64.1582 20.6613 63.9025 20.2492 63.9025 19.3418V10.6628C63.9025 10.3367 63.6379 10.0728 63.3109 10.0728C62.9838 10.0728 62.7192 10.3367 62.7192 10.6628V19.5791C62.7192 21.1209 63.5011 21.708 64.622 21.708C64.8063 21.708 64.9668 21.6962 65.1036 21.6814C65.3593 21.6517 65.5496 21.4293 65.5496 21.1743V21.1565C65.5496 20.86 65.3087 20.6435 65.0114 20.6584Z" fill="#234075"/>
<path d="M73.3894 36.0802C73.3448 36.0802 73.3002 36.0832 73.2556 36.0832C72.5361 36.0832 72.2804 35.6711 72.2804 34.7637V26.0847C72.2804 25.7585 72.0158 25.4946 71.6888 25.4946C71.3618 25.4946 71.0972 25.7585 71.0972 26.0847V35.0009C71.0972 36.5428 71.8791 37.1299 72.9999 37.1299C73.1842 37.1299 73.3448 37.1181 73.4815 37.1032C73.7372 37.0736 73.9275 36.8512 73.9275 36.5962V36.5784C73.9275 36.2819 73.6867 36.0654 73.3894 36.0802Z" fill="#234075"/>
<path d="M60.5993 20.6584C60.5547 20.6584 60.5101 20.6613 60.4656 20.6613C59.7461 20.6613 59.4904 20.2492 59.4904 19.3418V10.6628C59.4904 10.3367 59.2258 10.0728 58.8988 10.0728C58.5717 10.0728 58.3071 10.3367 58.3071 10.6628V19.5791C58.3071 21.1209 59.089 21.708 60.2099 21.708C60.3942 21.708 60.5547 21.6962 60.6915 21.6814C60.9472 21.6517 61.1375 21.4293 61.1375 21.1743V21.1565C61.1375 20.86 60.8966 20.6435 60.5993 20.6584Z" fill="#234075"/>
<path d="M35.5276 20.6584C35.483 20.6584 35.4384 20.6613 35.3938 20.6613C34.6743 20.6613 34.4186 20.2492 34.4186 19.3418V10.6628C34.4186 10.3367 34.154 10.0728 33.827 10.0728C33.5 10.0728 33.2354 10.3367 33.2354 10.6628V19.5791C33.2354 21.1209 34.0173 21.708 35.1381 21.708C35.3224 21.708 35.483 21.6962 35.6197 21.6814C35.8754 21.6517 36.0657 21.4293 36.0657 21.1743V21.1565C36.0657 20.86 35.8249 20.6435 35.5276 20.6584Z" fill="#234075"/>
<path d="M31.1125 20.6584C31.0679 20.6584 31.0233 20.6613 30.9787 20.6613C30.2593 20.6613 30.0036 20.2492 30.0036 19.3418V10.6628C30.0036 10.3367 29.739 10.0728 29.4119 10.0728C29.0849 10.0728 28.8203 10.3367 28.8203 10.6628V19.5791C28.8203 21.1209 29.6022 21.708 30.723 21.708C30.9074 21.708 31.0679 21.6962 31.2047 21.6814C31.4604 21.6517 31.6506 21.4293 31.6506 21.1743V21.1565C31.6506 20.86 31.4098 20.6435 31.1125 20.6584Z" fill="#234075"/>
<path d="M56.1485 20.6612C56.1099 20.6612 56.0683 20.6612 56.0237 20.6612C55.3042 20.6612 55.0485 20.2491 55.0485 19.3417V14.1824C55.0485 13.8562 54.7839 13.5923 54.4569 13.5923C54.1298 13.5923 53.8652 13.8562 53.8652 14.1824V19.5789C53.8652 21.1208 54.6471 21.7079 55.768 21.7079C55.9523 21.7079 56.1158 21.6961 56.2496 21.6812C56.5053 21.6516 56.6956 21.4292 56.6956 21.1742V21.1683C56.6956 20.8718 56.4458 20.6434 56.1485 20.6583V20.6612Z" fill="#234075"/>
<path d="M54.4598 11.8726H54.4569C54.1301 11.8726 53.8652 12.1367 53.8652 12.4626V12.4656C53.8652 12.7915 54.1301 13.0557 54.4569 13.0557H54.4598C54.7866 13.0557 55.0515 12.7915 55.0515 12.4656V12.4626C55.0515 12.1367 54.7866 11.8726 54.4598 11.8726Z" fill="#234075"/>
<path d="M49.3521 35.8902C49.3135 35.8902 49.2719 35.8902 49.2273 35.8902C48.5078 35.8902 48.2521 35.4781 48.2521 34.5707V29.4114C48.2521 29.0852 47.9875 28.8213 47.6605 28.8213C47.3334 28.8213 47.0688 29.0852 47.0688 29.4114V34.8079C47.0688 36.3498 47.8508 36.9369 48.9716 36.9369C49.1559 36.9369 49.3194 36.9251 49.4532 36.9102C49.7089 36.8806 49.8992 36.6582 49.8992 36.4032V36.3973C49.8992 36.1008 49.6494 35.8724 49.3521 35.8873V35.8902Z" fill="#234075"/>
<path d="M47.6635 27.1016H47.6605C47.3337 27.1016 47.0688 27.3657 47.0688 27.6916V27.6946C47.0688 28.0205 47.3337 28.2847 47.6605 28.2847H47.6635C47.9902 28.2847 48.2551 28.0205 48.2551 27.6946V27.6916C48.2551 27.3657 47.9902 27.1016 47.6635 27.1016Z" fill="#234075"/>
<path d="M43.9564 29.2393C43.5432 28.9724 43.0021 28.8301 42.3034 28.8301C41.1231 28.8301 40.0826 29.601 39.5563 30.5321C39.5117 30.6092 39.4731 30.6863 39.4374 30.7634H39.4196C39.2977 30.0695 38.9677 29.5536 38.4771 29.2274C38.0787 28.9665 37.5733 28.8301 36.9817 28.8301C35.739 28.8301 34.5349 29.6485 34.0681 30.7011V29.604C34.0681 29.3075 33.866 29.0347 33.5746 28.9872C33.203 28.9279 32.8789 29.2126 32.8789 29.5714V36.24C32.8789 36.498 33.0008 36.7471 33.2238 36.8775C33.3724 36.9635 33.4973 36.9605 33.6162 36.9309C33.6162 36.9309 33.6162 36.9309 33.6192 36.9309C33.6876 36.9131 33.753 36.8864 33.8095 36.8479C33.973 36.7471 34.083 36.5721 34.083 36.3675V33.1889C34.083 31.6055 35.0076 29.9242 36.7587 29.9242C37.7428 29.9242 38.1501 30.4461 38.3077 31.1488C38.3552 31.3534 38.3671 31.5669 38.3671 31.7774V36.3557C38.3671 36.6848 38.6347 36.9487 38.9617 36.9487C38.9825 36.9487 39.0033 36.9428 39.0242 36.9398C39.0301 36.9398 39.0361 36.9398 39.042 36.9398C39.0628 36.9398 39.0806 36.9368 39.0985 36.9309C39.1193 36.9279 39.1371 36.922 39.155 36.9161C39.1877 36.9072 39.2174 36.8923 39.2442 36.8775C39.4344 36.7856 39.5623 36.5899 39.5623 36.3645V33.1859C39.5623 31.6351 40.4245 29.9213 42.1934 29.9213C43.1894 29.9213 43.6264 30.4461 43.7929 31.22C43.8405 31.4453 43.8553 31.6766 43.8553 31.9049V36.329C43.8553 36.6047 44.0307 36.8627 44.2983 36.9279C44.5213 36.9843 44.7353 36.9101 44.8721 36.7678C44.9018 36.7411 44.9256 36.7115 44.9435 36.6818C44.9643 36.6492 44.9821 36.6196 44.997 36.584C45.0267 36.5128 45.0445 36.4357 45.0445 36.3527V31.9465C45.0445 30.6744 44.7324 29.7345 43.9564 29.2363V29.2393Z" fill="#234075"/>
<path d="M18.3463 25.9598C18.3463 26.2949 18.0758 26.5647 17.7428 26.5647H14.7936V36.3379C14.7936 36.673 14.523 36.9428 14.19 36.9428C14.0235 36.9428 13.8689 36.8746 13.7619 36.7649C13.6519 36.6581 13.5835 36.5039 13.5835 36.3379V26.5647H10.6373C10.3013 26.5647 10.0308 26.2949 10.0308 25.9598C10.0308 25.6248 10.3013 25.3579 10.6373 25.3579H17.7428C18.0758 25.3579 18.3463 25.6277 18.3463 25.9598Z" fill="#234075"/>
<path d="M31.5259 29.3904C31.5229 29.5624 31.4337 29.7344 31.2851 29.8293C31.187 29.8916 31.071 29.9212 30.9581 29.9331C30.9016 29.939 30.8421 29.936 30.7856 29.942C30.7291 29.9479 30.6637 29.9568 30.6043 29.9686C30.4764 29.9924 30.3486 30.0279 30.2267 30.0754C30.0156 30.1555 29.8164 30.2652 29.6351 30.4016C29.4537 30.538 29.2961 30.6981 29.1564 30.873C29.0167 31.048 28.8948 31.2496 28.7937 31.4572C28.6926 31.6647 28.6094 31.8901 28.5499 32.1154C28.4904 32.3408 28.4459 32.578 28.425 32.8152C28.4131 32.9397 28.4072 33.0643 28.4072 33.1918V36.3704C28.4072 36.578 28.2972 36.7529 28.1337 36.8508C28.0772 36.8893 28.0118 36.919 27.9404 36.9368C27.8215 36.9664 27.6966 36.9724 27.548 36.8834C27.328 36.7529 27.2031 36.5039 27.2031 36.2459V29.5772C27.2031 29.2155 27.5242 28.9308 27.8988 28.9901C28.1902 29.0376 28.3923 29.3133 28.3923 29.6069V30.707C28.3923 30.6832 28.425 30.6388 28.434 30.6151C28.4488 30.5824 28.4667 30.5528 28.4815 30.5231C28.5142 30.4609 28.5499 30.4016 28.5886 30.3423C28.6659 30.2236 28.7521 30.108 28.8442 29.9983C29.0464 29.764 29.2842 29.5565 29.5429 29.3875C29.8016 29.2185 30.0751 29.091 30.3635 28.9931C30.4497 28.9635 30.5359 28.9397 30.6221 28.916C30.8064 28.8686 31.0086 28.833 31.187 28.9012C31.3475 28.9605 31.4754 29.1058 31.514 29.2718C31.5229 29.3133 31.5289 29.3549 31.5259 29.3964V29.3904Z" fill="#234075"/>
<path d="M16.4289 46.159V45.0471H17.7103C17.9303 45.0471 18.1057 44.8692 18.1057 44.6497C18.1057 44.4303 17.9273 44.2524 17.7103 44.2524H16.4289V43.2027H18.0106C18.2306 43.2027 18.406 43.0248 18.406 42.8084V42.7757C18.406 42.5563 18.2276 42.3784 18.0076 42.3784H15.4419V46.9803H18.1028C18.3228 46.9803 18.4982 46.8024 18.4982 46.586V46.5534C18.4982 46.3339 18.3198 46.156 18.0998 46.156H16.423L16.4289 46.159Z" fill="#234075"/>
<path d="M21.5185 42.3843H20.0469V46.9862H21.5304C23.0913 46.9862 24.0783 46.0315 24.0783 44.6853C24.0783 43.3391 23.0853 42.3813 21.5185 42.3813V42.3843ZM21.5185 46.1619H21.0339V43.2086H21.5066C22.5056 43.2086 23.0853 43.855 23.0853 44.6882C23.0853 45.5215 22.5056 46.1619 21.5185 46.1619Z" fill="#234075"/>
<path d="M26.5134 46.159V45.0471H27.7948C28.0148 45.0471 28.1902 44.8692 28.1902 44.6497C28.1902 44.4303 28.0118 44.2524 27.7948 44.2524H26.5134V43.2027H28.0951C28.3151 43.2027 28.4905 43.0248 28.4905 42.8084V42.7757C28.4905 42.5563 28.3121 42.3784 28.0921 42.3784H25.5264V46.9803H28.1872C28.4072 46.9803 28.5826 46.8024 28.5826 46.586V46.5534C28.5826 46.3339 28.4043 46.156 28.1843 46.156H26.5075L26.5134 46.159Z" fill="#234075"/>
<path d="M33.3363 42.3843C33.149 42.3843 32.9796 42.494 32.9023 42.666L32.4296 43.7156C32.2244 44.1693 31.942 44.8216 31.8082 45.1478C31.6477 44.7001 31.4366 44.2464 31.1987 43.7156L30.7231 42.666C30.6458 42.497 30.4763 42.3872 30.289 42.3872H30.283C29.9322 42.3872 29.7003 42.7549 29.8549 43.0722L31.7933 47.0574H31.832L33.7645 43.0692C33.9191 42.752 33.6872 42.3872 33.3334 42.3872L33.3363 42.3843Z" fill="#234075"/>
<path d="M36.2468 46.159V45.0471H37.5252C37.7452 45.0471 37.9206 44.8692 37.9206 44.6497C37.9206 44.4303 37.7422 44.2524 37.5252 44.2524H36.2468V43.2027H37.8285C38.0485 43.2027 38.2239 43.0248 38.2239 42.8084V42.7757C38.2239 42.5563 38.0455 42.3784 37.8255 42.3784H35.2598V46.9803H37.9206C38.1406 46.9803 38.316 46.8024 38.316 46.586V46.5534C38.316 46.3339 38.1377 46.156 37.9177 46.156H36.2409L36.2468 46.159Z" fill="#234075"/>
<path d="M40.9831 46.159V42.8736C40.9831 42.6008 40.7631 42.3813 40.4896 42.3813C40.2161 42.3813 39.9961 42.6008 39.9961 42.8736V46.9833H42.3418C42.5707 46.9833 42.7551 46.7994 42.7551 46.5711C42.7551 46.3428 42.5707 46.159 42.3418 46.159H40.9831Z" fill="#234075"/>
<path d="M46.0225 42.2954C44.6282 42.2954 43.6084 43.3629 43.6084 44.6883C43.6084 46.0137 44.6282 47.0782 46.0225 47.0782C47.4169 47.0782 48.4366 46.0285 48.4366 44.6883C48.4366 43.348 47.4109 42.2954 46.0225 42.2954ZM46.0225 46.1768C45.1901 46.1768 44.6014 45.5126 44.6014 44.6883C44.6014 43.864 45.1901 43.1968 46.0225 43.1968C46.855 43.1968 47.4436 43.8669 47.4436 44.6883C47.4436 45.5096 46.855 46.1768 46.0225 46.1768Z" fill="#234075"/>
<path d="M51.4779 42.3843H49.9795V46.5889C49.9795 46.8083 50.1579 46.9862 50.3779 46.9862H50.5682C50.7882 46.9862 50.9636 46.8083 50.9636 46.5918V45.4117H51.4749C52.5393 45.4117 53.2469 44.8898 53.2469 43.8995C53.2469 42.9091 52.5393 42.3843 51.4749 42.3843H51.4779ZM51.5284 44.5844H50.9665V43.2086H51.5047C51.9447 43.2086 52.2539 43.4399 52.2539 43.8995C52.2539 44.3591 51.9595 44.5815 51.5314 44.5815L51.5284 44.5844Z" fill="#234075"/>
<path d="M59.1068 42.313L56.9127 44.525L54.7156 42.313H54.6978V46.5146C54.6978 46.7726 54.9088 46.9831 55.1675 46.9831C55.4261 46.9831 55.6372 46.7726 55.6372 46.5146V44.3975L55.881 44.608C56.2259 44.9787 56.5648 45.3493 56.9127 45.714C57.2575 45.3493 57.6054 44.9787 57.9443 44.608L58.1881 44.3975V46.5146C58.1881 46.7726 58.3992 46.9831 58.6578 46.9831C58.9165 46.9831 59.1276 46.7726 59.1276 46.5146V42.313H59.1068Z" fill="#234075"/>
<path d="M61.5593 46.159V45.0471H62.8377C63.0577 45.0471 63.2331 44.8692 63.2331 44.6497C63.2331 44.4303 63.0547 44.2524 62.8377 44.2524H61.5593V43.2027H63.141C63.361 43.2027 63.5364 43.0248 63.5364 42.8084V42.7757C63.5364 42.5563 63.358 42.3784 63.138 42.3784H60.5723V46.9803H63.2331C63.4531 46.9803 63.6285 46.8024 63.6285 46.586V46.5534C63.6285 46.3339 63.4502 46.159 63.2331 46.159H61.5563H61.5593Z" fill="#234075"/>
<path d="M67.9366 42.8704V44.9994L67.6423 44.7355L65.1212 42.313H65.0825V46.5028C65.0825 46.7696 65.2995 46.9861 65.5671 46.9861C65.8347 46.9861 66.0517 46.7696 66.0517 46.5028V44.3708L66.352 44.6347L68.8791 47.0543H68.9118V42.8704C68.9118 42.6036 68.6947 42.3842 68.4242 42.3842C68.1566 42.3842 67.9366 42.6006 67.9366 42.8704Z" fill="#234075"/>
<path d="M70.3564 42.7964C70.3564 43.0248 70.5408 43.2086 70.7697 43.2086H71.6438V46.574C71.6438 46.8024 71.8281 46.9862 72.057 46.9862H72.2176C72.4465 46.9862 72.6308 46.8024 72.6308 46.574V43.2086H73.5108C73.7398 43.2086 73.9241 43.0248 73.9241 42.7964C73.9241 42.5681 73.7398 42.3843 73.5108 42.3843H70.7697C70.5408 42.3843 70.3564 42.5681 70.3564 42.7964Z" fill="#234075"/>
<path d="M18.0818 48.7859C18.0669 48.7859 18.0521 48.7859 18.0342 48.7889C17.8707 48.8067 17.6953 48.8156 17.5259 48.8156C15.8699 48.8156 14.5231 48.1662 13.5985 46.4879C13.5004 46.3071 13.4023 46.1202 13.3131 45.9275L12.8285 44.8838C13.3398 44.6792 13.7293 44.2285 13.7293 43.5376C13.7293 42.5294 13.0009 41.9868 11.9039 41.9868H10.0249V46.4909C10.0249 46.7637 10.2479 46.9861 10.5214 46.9861C10.7949 46.9861 11.0149 46.7637 11.0149 46.4909V45.0558H11.9157L12.3082 45.9305C12.3082 45.9305 12.3112 45.9334 12.3112 45.9364C12.4301 46.2092 12.5579 46.4731 12.6828 46.737C13.7293 48.8452 15.3823 49.7644 17.4723 49.7644C17.7013 49.7644 17.9391 49.7437 18.1532 49.7111C18.3791 49.6755 18.5397 49.4798 18.5397 49.2544C18.5397 48.9965 18.3315 48.7919 18.0818 48.7919V48.7859ZM11.0119 44.2403V42.8319H11.9276C12.3855 42.8319 12.7095 43.0691 12.7095 43.5376C12.7095 44.0061 12.4033 44.2374 11.9544 44.2374H11.0119V44.2403Z" fill="#234075"/>
</svg>
